<?xml version="1.0" encoding="UTF-8" standalone="no"?>
<!-- Created with Inkscape (http://www.inkscape.org/) -->

<svg
   xmlns:dc="http://purl.org/dc/elements/1.1/"
   xmlns:cc="http://creativecommons.org/ns#"
   xmlns:rdf="http://www.w3.org/1999/02/22-rdf-syntax-ns#"
   xmlns:svg="http://www.w3.org/2000/svg"
   xmlns="http://www.w3.org/2000/svg"
   xmlns:sodipodi="http://sodipodi.sourceforge.net/DTD/sodipodi-0.dtd"
   xmlns:inkscape="http://www.inkscape.org/namespaces/inkscape"
   height="210mm"
   width="148mm"
   viewBox="0 0 524.40944 744.09448"
   id="svg2"
   version="1.1"
   inkscape:version="0.91 r13725"
   sodipodi:docname="breaker.svg">
  <defs
     id="defs8" />
  <sodipodi:namedview
     pagecolor="#ffffff"
     bordercolor="#666666"
     borderopacity="1"
     objecttolerance="10"
     gridtolerance="10"
     guidetolerance="10"
     inkscape:pageopacity="0"
     inkscape:pageshadow="2"
     inkscape:window-width="2507"
     inkscape:window-height="1395"
     id="namedview6"
     showgrid="false"
     inkscape:zoom="0.67175144"
     inkscape:cx="38.707016"
     inkscape:cy="530.65061"
     inkscape:window-x="173"
     inkscape:window-y="0"
     inkscape:window-maximized="0"
     inkscape:current-layer="svg2" />
  <metadata
     id="metadata4">
    <rdf:RDF>
      <cc:Work
         rdf:about="">
        <dc:format>image/svg+xml</dc:format>
        <dc:type
           rdf:resource="http://purl.org/dc/dcmitype/StillImage" />
        <dc:title></dc:title>
      </cc:Work>
    </rdf:RDF>
  </metadata>
  <text
     xml:space="preserve"
     style="font-style:normal;font-variant:normal;font-weight:500;font-stretch:normal;font-size:40px;line-height:125%;font-family:RitzyRemixNF;-inkscape-font-specification:'RitzyRemixNF Medium';letter-spacing:0px;word-spacing:0px;fill:#000000;fill-opacity:1;stroke:none;stroke-width:1px;stroke-linecap:butt;stroke-linejoin:miter;stroke-opacity:1"
     x="194.87195"
     y="381.0759"
     id="text3372"
     sodipodi:linespacing="125%"><tspan
       sodipodi:role="line"
       id="tspan3374"
       x="194.87195"
       y="381.0759" /></text>
  <path
     style="fill:#d5b01e;fill-opacity:0.50588235"
     d="m 35.223453,52.610236 c -3.84151,-0.34224 -6.32349,-1.0726 -7.19721,-2.11785 -1.01253,-1.21124 -0.79364,-2.28333 0.46615,-2.28333 0.94924,0 1.1807,1.10202 0.29065,1.38392 -1.18512,0.37536 0.64725,1.54893 3.19843,2.04847 3.07191,0.60154 7.94149,0.30941 14.4948,-0.86955 20.18646,-3.6316 35.34031,-3.59831 40.86759,0.0898 l 1.27511,0.8508 1.26621,-1.14154 c 4.185,-3.77297 14.764487,-3.76574 40.475547,0.0276 11.69262,1.72513 15.44017,1.77055 17.10148,0.20725 0.53204,-0.50066 0.70813,-0.89559 0.39935,-0.89559 -0.3038,0 -0.55238,-0.28708 -0.55238,-0.63794 0,-0.36159 0.40522,-0.63794 0.93532,-0.63794 1.294,0 1.001,1.58286 -0.48337,2.61139 -1.84543,1.27866 -5.56424,1.71246 -12.20288,1.42334 -7.9123,-0.34453 -11.71422,-0.76676 -23.50184,-2.61012 -11.73664,-1.83537 -16.351277,-1.84277 -20.140587,-0.0324 -1.25847,0.60129 -2.55876,1.40008 -2.8895,1.77506 -0.53331,0.60464 -0.68549,0.61025 -1.34404,0.0494 -0.40843,-0.34782 -1.75211,-1.07035 -2.98591,-1.60559 -2.03625,-0.88333 -2.86889,-0.96996 -9.02267,-0.93853 -5.48858,0.0281 -8.32828,0.29162 -14.91463,1.38463 -10.62659,1.76345 -19.65989,2.44222 -25.53566,1.91873 z"
     id="path3416"
     inkscape:connector-curvature="0"
     sodipodi:nodetypes="ccscssscsssssscsssscssscc" />
</svg>
